<svg xmlns="http://www.w3.org/2000/svg" viewBox="0 0 171 126"><defs><style>.cls-1{fill-rule:evenodd;}</style></defs><g id="Layer_2" data-name="Layer 2"><g id="Layer_1-2" data-name="Layer 1"><path class="cls-1" d="M87,126H27A86.69,86.69,0,0,1,0,65.62c0-.87,0-1.74,0-2.62A87,87,0,0,1,1.81,45.28,86,86,0,0,1,8.62,25.2a87.27,87.27,0,0,1,12-18.41A89.34,89.34,0,0,1,27,0H45l9.2,9.2A63.68,63.68,0,0,0,37.64,23.84c-.36.45-.7.9-1,1.36A62.69,62.69,0,0,0,24,63c0,.88,0,1.75.06,2.62A63,63,0,0,0,87,126Z"/><path d="M150,63c0,.88,0,1.75-.06,2.62A62.57,62.57,0,0,1,140.8,95.8L122.09,77.09c.11-.27.21-.55.32-.82l.3-.83.27-.81.12-.4.18-.57c.1-.35.19-.69.28-1a.65.65,0,0,0,0-.13l0-.07a.08.08,0,0,1,0,0s0-.07,0-.12,0,0,0-.06c.06-.22.12-.45.16-.68s.09-.38.13-.57.05-.21.07-.32.07-.36.11-.56c.09-.45.16-.9.23-1.35l.09-.63c0-.21.05-.42.08-.63,0,0,0-.08,0-.12s0-.24,0-.36l.06-.63c0-.15,0-.29,0-.43s0-.2,0-.3,0-.23,0-.33,0-.26,0-.39,0-.2,0-.3a.13.13,0,0,0,0-.06v-.05a2.26,2.26,0,0,0,0-.26c0-.14,0-.29,0-.44s0-.53,0-.79A37.8,37.8,0,0,0,55.66,41.86L39,25.2l-1.36-1.36A63.68,63.68,0,0,1,54.2,9.2,63,63,0,0,1,150,63Z"/><path d="M140.8,95.8a63.68,63.68,0,0,1-14.64,16.56L79.42,65.62,55.66,41.86A38,38,0,0,1,72.91,27.91l37.71,37.71Z"/><path d="M171,126H139.8l-13.64-13.64A63.68,63.68,0,0,0,140.8,95.8l17.32,17.32Z"/><path d="M54.2,65.62a29.89,29.89,0,0,1-2.28,11.49A30.22,30.22,0,0,1,32.47,94.57a62.6,62.6,0,0,1-8.41-28.95Z"/></g></g></svg>