<svg xmlns="http://www.w3.org/2000/svg" viewBox="0 0 218.8 159.93"><defs><style>.cls-1{fill:none;}.cls-1,.cls-3{stroke:#fff;stroke-miterlimit:10;stroke-width:5px;}.cls-2{fill-rule:evenodd;}</style></defs><g id="Layer_2" data-name="Layer 2"><g id="Layer_1-2" data-name="Layer 1"><path class="cls-1" d="M109.47,157.43H35.7A106.61,106.61,0,0,1,2.55,83.18c0-1.07,0-2.14,0-3.22A107.77,107.77,0,0,1,4.72,58.18a106.73,106.73,0,0,1,23.1-47.33A107.15,107.15,0,0,1,35.7,2.5H57.83L69.14,13.81a77.87,77.87,0,0,0-20.35,18c-.45.54-.87,1.1-1.29,1.67A77,77,0,0,0,32,80c0,1.08,0,2.16.07,3.22a77.44,77.44,0,0,0,77.39,74.25Z"/><path class="cls-2" d="M109.47,157.43H35.7A106.61,106.61,0,0,1,2.55,83.18c0-1.07,0-2.14,0-3.22A107.77,107.77,0,0,1,4.72,58.18a106.73,106.73,0,0,1,23.1-47.33A107.15,107.15,0,0,1,35.7,2.5H57.83L69.14,13.81a77.87,77.87,0,0,0-20.35,18c-.45.54-.87,1.1-1.29,1.67A77,77,0,0,0,32,80c0,1.08,0,2.16.07,3.22a77.44,77.44,0,0,0,77.39,74.25Z"/><path class="cls-3" d="M186.94,80c0,1.08,0,2.16-.08,3.22a77,77,0,0,1-11.23,37.12l-23-23,.39-1,.37-1c.12-.33.23-.67.33-1,.06-.16.1-.32.16-.49l.21-.7c.12-.43.24-.84.35-1.27,0,0,0-.11,0-.16l0-.09a.09.09,0,0,0,0,0,.74.74,0,0,0,0-.14.31.31,0,0,0,0-.08c.07-.28.14-.56.2-.84s.11-.46.15-.7.06-.26.08-.39.1-.45.14-.69c.11-.55.2-1.1.28-1.67.05-.25.08-.51.11-.77s.07-.52.1-.77c0,0,0-.1,0-.14s0-.31,0-.45.06-.52.08-.78a4.73,4.73,0,0,0,0-.53c0-.13,0-.24,0-.37s0-.27,0-.4a3.75,3.75,0,0,0,0-.48c0-.12,0-.25,0-.37a.2.2,0,0,0,0-.07v-.38a4.87,4.87,0,0,0,0-.54c0-.33,0-.65,0-1a46.47,46.47,0,0,0-85-26L50.45,33.49l-1.66-1.67a77.46,77.46,0,0,1,122.66,1.67A77,77,0,0,1,186.94,80Z"/><path class="cls-3" d="M175.63,120.3a77.87,77.87,0,0,1-18,20.35L100.15,83.18,70.94,54A46.71,46.71,0,0,1,92.15,36.82l46.36,46.36Z"/><path class="cls-3" d="M212.76,157.43H174.4l-16.78-16.78a77.87,77.87,0,0,0,18-20.35l21.29,21.29Z"/><path class="cls-3" d="M69.14,83.18a37,37,0,0,1-26.71,35.6,76.91,76.91,0,0,1-10.35-35.6Z"/></g></g></svg>